<?xml version="1.0" encoding="UTF-8"?>
<!DOCTYPE svg PUBLIC "-//W3C//DTD SVG 1.1//EN" "http://www.w3.org/Graphics/SVG/1.1/DTD/svg11.dtd">
<!-- Creator: CorelDRAW -->
<svg xmlns="http://www.w3.org/2000/svg" xml:space="preserve" width="67.7276mm" height="15.9712mm" style="shape-rendering:geometricPrecision; text-rendering:geometricPrecision; image-rendering:optimizeQuality; fill-rule:evenodd; clip-rule:evenodd"
viewBox="0 0 44.0396 10.3852"
 xmlns:xlink="http://www.w3.org/1999/xlink">
 <defs>
  <style type="text/css">
   <![CDATA[
    .str0 {stroke:#007BBC;stroke-width:0.458813}
    .str1 {stroke:white;stroke-width:0.130049;stroke-dasharray:0.650245 0.390147}
    .fil0 {fill:none}
    .fil2 {fill:white}
    .fil1 {fill:#0077BD}
    .fil4 {fill:#13428B;fill-rule:nonzero}
    .fil3 {fill:white;fill-rule:nonzero}
   ]]>
  </style>
 </defs>
 <g id="图层_x0020_1">
  <metadata id="CorelCorpID_0Corel-Layer"/>
  <g id="_132663864">
   <path id="_137144272" class="fil0 str0" d="M1.24938 1.34451l41.5408 0c0.561032,0 1.01997,0.458943 1.01997,1.01997l0 5.65622c0,0.561032 -0.458943,1.01997 -1.01997,1.01997l-41.5408 0c-0.561032,0 -1.01997,-0.458943 -1.01997,-1.01997l0 -5.65622c0,-0.561032 0.458943,-1.01997 1.01997,-1.01997z"/>
   <rect id="_137144152" class="fil1" x="2.64026" width="38.3881" height="10.3852" rx="0.649075" ry="0.649075"/>
   <rect id="_132662880" class="fil2" x="11.756" y="5.7245" width="1.56133" height="1.08092"/>
   <rect id="_137145400" class="fil2" x="14.0379" y="5.7245" width="1.56133" height="1.08092"/>
   <rect id="_137549040" class="fil2" x="16.3199" y="5.7245" width="1.56133" height="1.08092"/>
   <rect id="_137144776" class="fil2" x="18.6018" y="5.7245" width="1.56133" height="1.08092"/>
   <rect id="_132319496" class="fil2" x="20.8838" y="5.7245" width="1.56133" height="1.08092"/>
   <rect id="_132319424" class="fil2" x="24.8357" y="5.7245" width="1.56133" height="1.08092"/>
   <rect id="_137145040" class="fil2" x="27.1176" y="5.7245" width="1.56133" height="1.08092"/>
   <rect id="_137146192" class="fil2" x="29.3996" y="5.7245" width="1.56133" height="1.08092"/>
   <rect id="_137146144" class="fil2" x="31.6815" y="5.7245" width="1.56133" height="1.08092"/>
   <rect id="_137141920" class="fil2" transform="matrix(0.654417 0.654417 -0.654417 0.654417 12.3078 0.893081)" width="0.79525" height="0.79525"/>
   <rect id="_137144896" class="fil2" transform="matrix(0.654417 0.654417 -0.654417 0.654417 13.6326 0.893081)" width="0.79525" height="0.79525"/>
   <rect id="_137125816" class="fil2" transform="matrix(0.654417 0.654417 -0.654417 0.654417 14.9574 0.893081)" width="0.79525" height="0.79525"/>
   <rect id="_137136736" class="fil2" transform="matrix(0.654417 0.654417 -0.654417 0.654417 16.2821 0.893081)" width="0.79525" height="0.79525"/>
   <rect id="_137143528" class="fil2" transform="matrix(0.654417 0.654417 -0.654417 0.654417 17.6069 0.893081)" width="0.79525" height="0.79525"/>
   <rect id="_137143024" class="fil2" transform="matrix(0.654417 0.654417 -0.654417 0.654417 18.9317 0.893081)" width="0.79525" height="0.79525"/>
   <rect id="_137142544" class="fil2" transform="matrix(0.654417 0.654417 -0.654417 0.654417 20.2565 0.893081)" width="0.79525" height="0.79525"/>
   <rect id="_132662856" class="fil2" transform="matrix(0.654417 0.654417 -0.654417 0.654417 21.5813 0.893081)" width="0.79525" height="0.79525"/>
   <rect id="_137132104" class="fil2" transform="matrix(0.654417 0.654417 -0.654417 0.654417 22.9061 0.893081)" width="0.79525" height="0.79525"/>
   <rect id="_137142904" class="fil2" transform="matrix(0.654417 0.654417 -0.654417 0.654417 24.2309 0.893081)" width="0.79525" height="0.79525"/>
   <rect id="_137126392" class="fil2" transform="matrix(0.654417 0.654417 -0.654417 0.654417 25.5556 0.893081)" width="0.79525" height="0.79525"/>
   <rect id="_137127328" class="fil2" transform="matrix(0.654417 0.654417 -0.654417 0.654417 26.8804 0.893081)" width="0.79525" height="0.79525"/>
   <rect id="_137127760" class="fil2" transform="matrix(0.654417 0.654417 -0.654417 0.654417 28.2052 0.893081)" width="0.79525" height="0.79525"/>
   <rect id="_132663792" class="fil2" transform="matrix(0.654417 0.654417 -0.654417 0.654417 29.53 0.893081)" width="0.79525" height="0.79525"/>
   <rect id="_131750088" class="fil2" transform="matrix(0.654417 0.654417 -0.654417 0.654417 30.8548 0.893081)" width="0.79525" height="0.79525"/>
   <rect id="_131750880" class="fil2" transform="matrix(0.654417 0.654417 -0.654417 0.654417 32.1796 0.893081)" width="0.79525" height="0.79525"/>
   <rect id="_137135584" class="fil2" transform="matrix(0.654417 0.654417 -0.654417 0.654417 33.5043 0.893081)" width="0.79525" height="0.79525"/>
   <rect id="_137136568" class="fil2" transform="matrix(0.654417 0.654417 -0.654417 0.654417 34.8291 0.893081)" width="0.79525" height="0.79525"/>
   <rect id="_137142280" class="fil2" transform="matrix(0.654417 0.654417 -0.654417 0.654417 36.1539 0.893081)" width="0.79525" height="0.79525"/>
   <rect id="_137143168" class="fil2" transform="matrix(0.654417 0.654417 -0.654417 0.654417 37.4787 0.893081)" width="0.79525" height="0.79525"/>
   <rect id="_132664008" class="fil2" transform="matrix(0.654417 0.654417 -0.654417 0.654417 12.9702 1.62907)" width="0.79525" height="0.79525"/>
   <rect id="_132664128" class="fil2" transform="matrix(0.654417 0.654417 -0.654417 0.654417 14.295 1.62907)" width="0.79525" height="0.79525"/>
   <rect id="_137137072" class="fil2" transform="matrix(0.654417 0.654417 -0.654417 0.654417 15.6197 1.62907)" width="0.79525" height="0.79525"/>
   <rect id="_137138920" class="fil2" transform="matrix(0.654417 0.654417 -0.654417 0.654417 16.9445 1.62907)" width="0.79525" height="0.79525"/>
   <rect id="_137139664" class="fil2" transform="matrix(0.654417 0.654417 -0.654417 0.654417 18.2693 1.62907)" width="0.79525" height="0.79525"/>
   <rect id="_137140528" class="fil2" transform="matrix(0.654417 0.654417 -0.654417 0.654417 19.5941 1.62907)" width="0.79525" height="0.79525"/>
   <rect id="_137141032" class="fil2" transform="matrix(0.654417 0.654417 -0.654417 0.654417 20.9189 1.62907)" width="0.79525" height="0.79525"/>
   <rect id="_137128816" class="fil2" transform="matrix(0.654417 0.654417 -0.654417 0.654417 22.2437 1.62907)" width="0.79525" height="0.79525"/>
   <rect id="_137128408" class="fil2" transform="matrix(0.654417 0.654417 -0.654417 0.654417 23.5685 1.62907)" width="0.79525" height="0.79525"/>
   <rect id="_137138560" class="fil2" transform="matrix(0.654417 0.654417 -0.654417 0.654417 24.8932 1.62907)" width="0.79525" height="0.79525"/>
   <rect id="_137549160" class="fil2" transform="matrix(0.654417 0.654417 -0.654417 0.654417 26.218 1.62907)" width="0.79525" height="0.79525"/>
   <rect id="_137144416" class="fil2" transform="matrix(0.654417 0.654417 -0.654417 0.654417 27.5428 1.62907)" width="0.79525" height="0.79525"/>
   <rect id="_132317624" class="fil2" transform="matrix(0.654417 0.654417 -0.654417 0.654417 28.8676 1.62907)" width="0.79525" height="0.79525"/>
   <rect id="_137145520" class="fil2" transform="matrix(0.654417 0.654417 -0.654417 0.654417 30.1924 1.62907)" width="0.79525" height="0.79525"/>
   <rect id="_137135200" class="fil2" transform="matrix(0.654417 0.654417 -0.654417 0.654417 31.5172 1.62907)" width="0.79525" height="0.79525"/>
   <rect id="_137135248" class="fil2" transform="matrix(0.654417 0.654417 -0.654417 0.654417 32.842 1.62907)" width="0.79525" height="0.79525"/>
   <rect id="_137135944" class="fil2" transform="matrix(0.654417 0.654417 -0.654417 0.654417 34.1667 1.62907)" width="0.79525" height="0.79525"/>
   <rect id="_137136064" class="fil2" transform="matrix(0.654417 0.654417 -0.654417 0.654417 35.4915 1.62907)" width="0.79525" height="0.79525"/>
   <rect id="_131750760" class="fil2" transform="matrix(0.654417 0.654417 -0.654417 0.654417 36.8163 1.62907)" width="0.79525" height="0.79525"/>
   <rect id="_132317096" class="fil2" transform="matrix(0.654417 0.654417 -0.654417 0.654417 12.3078 2.36507)" width="0.79525" height="0.79525"/>
   <rect id="_132317168" class="fil2" transform="matrix(0.654417 0.654417 -0.654417 0.654417 13.6326 2.36507)" width="0.79525" height="0.79525"/>
   <rect id="_132317240" class="fil2" transform="matrix(0.654417 0.654417 -0.654417 0.654417 14.9574 2.36507)" width="0.79525" height="0.79525"/>
   <rect id="_132317312" class="fil2" transform="matrix(0.654417 0.654417 -0.654417 0.654417 16.2821 2.36507)" width="0.79525" height="0.79525"/>
   <rect id="_132317384" class="fil2" transform="matrix(0.654417 0.654417 -0.654417 0.654417 17.6069 2.36507)" width="0.79525" height="0.79525"/>
   <rect id="_102548480" class="fil2" transform="matrix(0.654417 0.654417 -0.654417 0.654417 18.9317 2.36507)" width="0.79525" height="0.79525"/>
   <rect id="_137129200" class="fil2" transform="matrix(0.654417 0.654417 -0.654417 0.654417 20.2565 2.36507)" width="0.79525" height="0.79525"/>
   <rect id="_137130088" class="fil2" transform="matrix(0.654417 0.654417 -0.654417 0.654417 21.5813 2.36507)" width="0.79525" height="0.79525"/>
   <rect id="_137130736" class="fil2" transform="matrix(0.654417 0.654417 -0.654417 0.654417 22.9061 2.36507)" width="0.79525" height="0.79525"/>
   <rect id="_137131120" class="fil2" transform="matrix(0.654417 0.654417 -0.654417 0.654417 24.2309 2.36507)" width="0.79525" height="0.79525"/>
   <rect id="_137131480" class="fil2" transform="matrix(0.654417 0.654417 -0.654417 0.654417 25.5556 2.36507)" width="0.79525" height="0.79525"/>
   <rect id="_137134096" class="fil2" transform="matrix(0.654417 0.654417 -0.654417 0.654417 26.8804 2.36507)" width="0.79525" height="0.79525"/>
   <rect id="_132662904" class="fil2" transform="matrix(0.654417 0.654417 -0.654417 0.654417 28.2052 2.36507)" width="0.79525" height="0.79525"/>
   <rect id="_132663168" class="fil2" transform="matrix(0.654417 0.654417 -0.654417 0.654417 29.53 2.36507)" width="0.79525" height="0.79525"/>
   <rect id="_132663240" class="fil2" transform="matrix(0.654417 0.654417 -0.654417 0.654417 30.8548 2.36507)" width="0.79525" height="0.79525"/>
   <rect id="_132663312" class="fil2" transform="matrix(0.654417 0.654417 -0.654417 0.654417 32.1796 2.36507)" width="0.79525" height="0.79525"/>
   <rect id="_132663456" class="fil2" transform="matrix(0.654417 0.654417 -0.654417 0.654417 33.5043 2.36507)" width="0.79525" height="0.79525"/>
   <rect id="_132663576" class="fil2" transform="matrix(0.654417 0.654417 -0.654417 0.654417 34.8291 2.36507)" width="0.79525" height="0.79525"/>
   <rect id="_132662640" class="fil2" transform="matrix(0.654417 0.654417 -0.654417 0.654417 36.1539 2.36507)" width="0.79525" height="0.79525"/>
   <rect id="_137143792" class="fil2" transform="matrix(0.654417 0.654417 -0.654417 0.654417 37.4787 2.36507)" width="0.79525" height="0.79525"/>
   <path id="_137129008" class="fil3" d="M4.28135 6.16524l0.756951 -1.97044 0.280776 0 0.806564 1.97044 -0.297292 0 -0.229862 -0.59686 -0.823991 0 -0.216077 0.59686 -0.27707 0zm0.568379 -0.809295l0.668452 0 -0.205998 -0.545491c-0.0623585,-0.165617 -0.109176,-0.301844 -0.139478,-0.408744 -0.0252295,0.126603 -0.0605378,0.25184 -0.106445,0.376622l-0.216532 0.577613zm2.45006 0.809295l-0.241761 0 0 -1.54147c-0.058262,0.0554659 -0.134406,0.110997 -0.228951,0.166528 -0.0949358,0.0554659 -0.179858,0.0972117 -0.255091,0.124782l0 -0.233503c0.135381,-0.0637891 0.253726,-0.140908 0.355099,-0.231227 0.100918,-0.0908393 0.172965,-0.178492 0.215166,-0.263805l0.155539 0 0 1.9787zm0.772752 -0.971727c0,-0.233048 0.023864,-0.420644 0.0720472,-0.562462 0.047663,-0.142209 0.119255,-0.25184 0.213736,-0.328894 0.0945457,-0.0771191 0.213345,-0.115614 0.356529,-0.115614 0.105925,0 0.19865,0.0215231 0.278435,0.0641792 0.0798501,0.0422659 0.14546,0.103714 0.19774,0.184019 0.0518246,0.0802403 0.09266,0.177972 0.122051,0.293131 0.0297812,0.115158 0.0444768,0.270242 0.0444768,0.465641 0,0.231227 -0.023864,0.417523 -0.0710718,0.559731 -0.047728,0.142209 -0.118865,0.251905 -0.213345,0.329414 -0.0945457,0.0775092 -0.213801,0.116069 -0.358285,0.116069 -0.189937,0 -0.339038,-0.0678856 -0.447369,-0.204177 -0.129789,-0.163732 -0.194944,-0.431243 -0.194944,-0.801037zm0.248654 0c0,0.323497 0.0381044,0.538663 0.113793,0.646019 0.0756886,0.1069 0.168804,0.160546 0.279866,0.160546 0.111452,0 0.204567,-0.0541654 0.280256,-0.161521 0.0757536,-0.107355 0.113793,-0.322522 0.113793,-0.645043 0,-0.324342 -0.0380394,-0.539964 -0.113793,-0.646409 -0.0756886,-0.1069 -0.169714,-0.16009 -0.282597,-0.16009 -0.111452,0 -0.200015,0.0472728 -0.266536,0.141298 -0.0830363,0.11971 -0.124782,0.341769 -0.124782,0.665201z"/>
   <polygon id="_132320072" class="fil0 str1" points="10.9606,4.75784 23.3665,4.75784 23.3665,7.85932 10.9606,7.85932 "/>
   <polygon id="_137143648" class="fil0 str1" points="24.0822,4.75784 39.0329,4.75784 39.0329,7.85932 24.0822,7.85932 "/>
   <path id="_137135080" class="fil3" d="M15.1509 8.36261l0 -0.149882 0.130374 0 0 0.149882 -0.130374 0zm0 0.910864l0 -0.76833 0.130374 0 0 0.76833 -0.130374 0zm0.41102 0l0 -0.76833 0.117044 0 0 0.109176c0.0565713,-0.0844669 0.138112,-0.126733 0.244557,-0.126733 0.0464275,0 0.0888885,0.00838816 0.127643,0.0249694 0.0390147,0.0167763 0.0679506,0.0384945 0.0871979,0.0656748 0.0195074,0.0269202 0.0328374,0.0590423 0.0407704,0.0961063 0.00468177,0.0241891 0.0071527,0.06639 0.0071527,0.126668l0 0.472468 -0.130439 0 0 -0.467526c0,-0.0528649 -0.00494186,-0.0925949 -0.0150207,-0.11906 -0.0101438,-0.0261399 -0.0281556,-0.0471428 -0.0538403,-0.0626836 -0.0259448,-0.015801 -0.0560511,-0.023734 -0.0909043,-0.023734 -0.055596,0 -0.103259,0.0177517 -0.143769,0.0528649 -0.0402502,0.0353083 -0.0602127,0.101958 -0.0602127,0.200536l0 0.419603 -0.130179 0zm0.854357 -0.229407l0.128684 -0.0202877c0.0071527,0.0516295 0.0273753,0.0911644 0.0604728,0.1188 0.0328374,0.0274404 0.0790048,0.0412256 0.138567,0.0412256 0.0597575,0 0.104234,-0.0123547 0.133105,-0.0365438 0.0288709,-0.0244492 0.0435014,-0.05306 0.0435014,-0.0857023 0,-0.0296512 -0.0128749,-0.0526048 -0.0385595,-0.0696413 -0.0177517,-0.0115744 -0.0622285,-0.0262049 -0.133105,-0.0439566 -0.095326,-0.0241891 -0.161781,-0.044932 -0.198585,-0.0627487 -0.0368039,-0.0174916 -0.0649595,-0.0419408 -0.0839467,-0.0730876 -0.0190522,-0.0311468 -0.0286758,-0.0654147 -0.0286758,-0.102999 0,-0.034333 0.00793299,-0.0659349 0.023734,-0.0950659 0.0155409,-0.0293911 0.036999,-0.0535802 0.0639191,-0.0728925 0.0202877,-0.0147606 0.0479231,-0.0276354 0.0827762,-0.0379743 0.0350482,-0.0104039 0.0725674,-0.0156059 0.112622,-0.0156059 0.0602777,0 0.113078,0.00890836 0.15879,0.0262049 0.0457122,0.0172965 0.0792649,0.0407704 0.100983,0.0703565 0.0217832,0.0299113 0.0366088,0.0694462 0.0447369,0.11906l-0.127188 0.0175566c-0.00591723,-0.0395349 -0.0227586,-0.0704216 -0.050394,-0.09266 -0.0276354,-0.0221734 -0.0669102,-0.0332926 -0.117564,-0.0332926 -0.0597575,0 -0.102479,0.00988373 -0.127903,0.0295862 -0.0256847,0.0197675 -0.0385595,0.0429812 -0.0385595,0.0694462 0,0.0170364 0.00546206,0.0320571 0.0160611,0.0456472 0.010599,0.0141103 0.0271803,0.0254896 0.0498738,0.0348531 0.013135,0.00468177 0.0513694,0.015801 0.115093,0.0330975 0.0921398,0.0247093 0.156319,0.0446719 0.192668,0.0604728 0.0365438,0.0156059 0.0652196,0.0385595 0.0859624,0.0684708 0.0207428,0.0298463 0.0310817,0.0669102 0.0310817,0.111322 0,0.0435014 -0.0128098,0.0842718 -0.0380394,0.122766 -0.0254246,0.0382994 -0.0619684,0.0679506 -0.109631,0.0889536 -0.047663,0.0209379 -0.101763,0.0313418 -0.162041,0.0313418 -0.100008,0 -0.176086,-0.0207428 -0.228431,-0.0622285 -0.0523447,-0.0414857 -0.0857023,-0.102999 -0.100008,-0.184475zm0.875815 -0.681457l0 -0.149882 0.130374 0 0 0.149882 -0.130374 0zm0 0.910864l0 -0.76833 0.130374 0 0 0.76833 -0.130374 0zm0.909433 0l0 -0.0970816c-0.0486383,0.0763388 -0.120295,0.114378 -0.214906,0.114378 -0.0612531,0 -0.117564,-0.0167763 -0.168934,-0.0506541 -0.0513694,-0.0335527 -0.0910994,-0.0807605 -0.119515,-0.141493 -0.0281556,-0.0605378 -0.0422009,-0.129919 -0.0422009,-0.208729 0,-0.0765339 0.0128098,-0.146175 0.0382344,-0.208664 0.0256847,-0.0624886 0.0639841,-0.110412 0.115093,-0.143509 0.0511743,-0.0332926 0.108461,-0.0501339 0.171665,-0.0501339 0.0461674,0 0.087458,0.00988373 0.123482,0.0293911 0.0362837,0.0195074 0.0656748,0.044932 0.0884334,0.0763388l0 -0.380589 0.129399 0 0 1.06075 -0.120751 0zm-0.411735 -0.38358c0,0.0985772 0.0207428,0.172185 0.0622285,0.220823 0.0414857,0.0486383 0.0903841,0.0730876 0.146955,0.0730876 0.0568314,0 0.10521,-0.0234739 0.145005,-0.0699014 0.03973,-0.0464275 0.0597575,-0.117564 0.0597575,-0.213085 0,-0.10521 -0.0202226,-0.182264 -0.0607329,-0.231422 -0.0405103,-0.0494186 -0.0904491,-0.0738679 -0.149947,-0.0738679 -0.0578068,0 -0.106185,0.023734 -0.14494,0.0708767 -0.0388196,0.0472078 -0.058327,0.121791 -0.058327,0.223489zm1.34555 0.136096l0.134601 0.0165813c-0.021198,0.0787447 -0.0604728,0.139738 -0.117759,0.183239 -0.0575467,0.0432413 -0.130894,0.0649595 -0.220108,0.0649595 -0.112362,0 -0.201511,-0.0345931 -0.267186,-0.103714 -0.0659349,-0.0691861 -0.0987723,-0.166268 -0.0987723,-0.29118 0,-0.129464 0.0332926,-0.229732 0.0997476,-0.301064 0.0667152,-0.0713969 0.152873,-0.107225 0.259058,-0.107225 0.102739,0 0.18675,0.0351132 0.25171,0.10495 0.0651546,0.0699014 0.0977969,0.168479 0.0977969,0.295146 0,0.00793299 -0.000260098,0.0195074 -0.000780294,0.0348531l-0.572931 0c0.00468177,0.0844669 0.0286108,0.149166 0.071592,0.193838 0.0429812,0.044997 0.0963013,0.0674304 0.160546,0.0674304 0.047663,0 0.0884334,-0.0125497 0.122246,-0.0377793 0.0338128,-0.0249044 0.0605378,-0.0649595 0.0802403,-0.120035zm-0.427471 -0.210679l0.428967 0c-0.00565713,-0.0644393 -0.0222384,-0.113078 -0.0491585,-0.1452 -0.0414857,-0.0501339 -0.095326,-0.0752984 -0.161261,-0.0752984 -0.0597575,0 -0.110152,0.0199625 -0.150922,0.0600176 -0.0407054,0.0399901 -0.0632038,0.0935703 -0.0676255,0.160481z"/>
   <path id="_132663720" class="fil3" d="M29.0013 8.88918c0,-0.142274 0.0395349,-0.247743 0.1188,-0.316149 0.0659349,-0.0567664 0.146435,-0.0854422 0.241501,-0.0854422 0.10573,0 0.192147,0.0345931 0.259123,0.103974 0.0671703,0.0691861 0.100463,0.164772 0.100463,0.286758 0,0.0990324 -0.0147606,0.176802 -0.0444118,0.233373 -0.0296512,0.0568314 -0.0728925,0.100788 -0.129399,0.13213 -0.0568314,0.0314068 -0.118605,0.0469477 -0.185775,0.0469477 -0.107421,0 -0.194358,-0.034333 -0.260813,-0.103519 -0.06639,-0.068861 -0.0994875,-0.168153 -0.0994875,-0.298072zm0.13382 0c0,0.0985772 0.0215231,0.17212 0.0645043,0.221018 0.0429812,0.0491585 0.0970166,0.0736078 0.161976,0.0736078 0.0646994,0 0.11854,-0.0247093 0.161521,-0.0738028 0.0427211,-0.0491585 0.0642442,-0.124262 0.0642442,-0.22505 0,-0.0950659 -0.0215231,-0.167178 -0.0646994,-0.216077 -0.0432413,-0.0488984 -0.0968215,-0.0733477 -0.161066,-0.0733477 -0.0649595,0 -0.118995,0.0244492 -0.161976,0.0730876 -0.0429812,0.0487034 -0.0645043,0.122246 -0.0645043,0.220563zm1.32487 0.384295l0 -0.112883c-0.0600176,0.0869378 -0.141298,0.130179 -0.244037,0.130179 -0.045192,0 -0.0876531,-0.00864826 -0.126928,-0.0259448 -0.0392748,-0.0172965 -0.0684058,-0.0392748 -0.087458,-0.0654147 -0.0192473,-0.026465 -0.0325773,-0.0585871 -0.0402502,-0.0966265 -0.00520196,-0.0256847 -0.00793299,-0.0661299 -0.00793299,-0.121726l0 -0.475915 0.130179 0 0 0.426041c0,0.0681457 0.00273103,0.113858 0.00793299,0.137527 0.00838816,0.034333 0.0256847,0.060993 0.0520846,0.0807605 0.0266601,0.0195074 0.0594974,0.029196 0.0985772,0.029196 0.0390147,0 0.0755585,-0.00988373 0.109891,-0.0299113 0.034333,-0.0200276 0.0585221,-0.0474029 0.0725674,-0.0817358 0.0143704,-0.0345931 0.0215231,-0.084727 0.0215231,-0.150207l0 -0.41167 0.130114 0 0 0.76833 -0.116264 0zm0.687114 -0.116589l0.0187271 0.115093c-0.0365438,0.00767289 -0.0693812,0.0116394 -0.0982521,0.0116394 -0.0474029,0 -0.0840117,-0.0074128 -0.110152,-0.0224985 -0.0259448,-0.0148256 -0.0442167,-0.0345931 -0.0548157,-0.0590423 -0.010664,-0.0241891 -0.0160611,-0.0755585 -0.0160611,-0.153588l0 -0.442102 -0.0955861 0 0 -0.101243 0.0955861 0 0 -0.190392 0.129659 -0.0780945 0 0.268486 0.130894 0 0 0.101243 -0.130894 0 0 0.449254c0,0.0373241 0.00221083,0.060993 0.0066325,0.071592 0.00468177,0.010664 0.0120946,0.0190522 0.0224985,0.0254896 0.0103389,0.00617733 0.0251645,0.00936353 0.0444768,0.00936353 0.0145655,0 0.0335527,-0.00175566 0.0572866,-0.00520196zm0.157684 -0.112818l0.128684 -0.0202877c0.0071527,0.0516295 0.0273753,0.0911644 0.0604728,0.1188 0.0328374,0.0274404 0.0790048,0.0412256 0.138567,0.0412256 0.0597575,0 0.104234,-0.0123547 0.133105,-0.0365438 0.0288709,-0.0244492 0.0435014,-0.05306 0.0435014,-0.0857023 0,-0.0296512 -0.0128749,-0.0526048 -0.0385595,-0.0696413 -0.0177517,-0.0115744 -0.0622285,-0.0262049 -0.133105,-0.0439566 -0.095326,-0.0241891 -0.161781,-0.044932 -0.198585,-0.0627487 -0.0368039,-0.0174916 -0.0649595,-0.0419408 -0.0839467,-0.0730876 -0.0190522,-0.0311468 -0.0286758,-0.0654147 -0.0286758,-0.102999 0,-0.034333 0.00793299,-0.0659349 0.023734,-0.0950659 0.0155409,-0.0293911 0.036999,-0.0535802 0.0639191,-0.0728925 0.0202877,-0.0147606 0.0479231,-0.0276354 0.0827762,-0.0379743 0.0350482,-0.0104039 0.0725674,-0.0156059 0.112622,-0.0156059 0.0602777,0 0.113078,0.00890836 0.15879,0.0262049 0.0457122,0.0172965 0.0792649,0.0407704 0.100983,0.0703565 0.0217832,0.0299113 0.0366088,0.0694462 0.0447369,0.11906l-0.127188 0.0175566c-0.00591723,-0.0395349 -0.0227586,-0.0704216 -0.050394,-0.09266 -0.0276354,-0.0221734 -0.0669102,-0.0332926 -0.117564,-0.0332926 -0.0597575,0 -0.102479,0.00988373 -0.127903,0.0295862 -0.0256847,0.0197675 -0.0385595,0.0429812 -0.0385595,0.0694462 0,0.0170364 0.00546206,0.0320571 0.0160611,0.0456472 0.010599,0.0141103 0.0271803,0.0254896 0.0498738,0.0348531 0.013135,0.00468177 0.0513694,0.015801 0.115093,0.0330975 0.0921398,0.0247093 0.156319,0.0446719 0.192668,0.0604728 0.0365438,0.0156059 0.0652196,0.0385595 0.0859624,0.0684708 0.0207428,0.0298463 0.0310817,0.0669102 0.0310817,0.111322 0,0.0435014 -0.0128098,0.0842718 -0.0380394,0.122766 -0.0254246,0.0382994 -0.0619684,0.0679506 -0.109631,0.0889536 -0.047663,0.0209379 -0.101763,0.0313418 -0.162041,0.0313418 -0.100008,0 -0.176086,-0.0207428 -0.228431,-0.0622285 -0.0523447,-0.0414857 -0.0857023,-0.102999 -0.100008,-0.184475zm0.875815 -0.681457l0 -0.149882 0.130374 0 0 0.149882 -0.130374 0zm0 0.910864l0 -0.76833 0.130374 0 0 0.76833 -0.130374 0zm0.909433 0l0 -0.0970816c-0.0486383,0.0763388 -0.120295,0.114378 -0.214906,0.114378 -0.0612531,0 -0.117564,-0.0167763 -0.168934,-0.0506541 -0.0513694,-0.0335527 -0.0910994,-0.0807605 -0.119515,-0.141493 -0.0281556,-0.0605378 -0.0422009,-0.129919 -0.0422009,-0.208729 0,-0.0765339 0.0128098,-0.146175 0.0382344,-0.208664 0.0256847,-0.0624886 0.0639841,-0.110412 0.115093,-0.143509 0.0511743,-0.0332926 0.108461,-0.0501339 0.171665,-0.0501339 0.0461674,0 0.087458,0.00988373 0.123482,0.0293911 0.0362837,0.0195074 0.0656748,0.044932 0.0884334,0.0763388l0 -0.380589 0.129399 0 0 1.06075 -0.120751 0zm-0.411735 -0.38358c0,0.0985772 0.0207428,0.172185 0.0622285,0.220823 0.0414857,0.0486383 0.0903841,0.0730876 0.146955,0.0730876 0.0568314,0 0.10521,-0.0234739 0.145005,-0.0699014 0.03973,-0.0464275 0.0597575,-0.117564 0.0597575,-0.213085 0,-0.10521 -0.0202226,-0.182264 -0.0607329,-0.231422 -0.0405103,-0.0494186 -0.0904491,-0.0738679 -0.149947,-0.0738679 -0.0578068,0 -0.106185,0.023734 -0.14494,0.0708767 -0.0388196,0.0472078 -0.058327,0.121791 -0.058327,0.223489zm1.34555 0.136096l0.134601 0.0165813c-0.021198,0.0787447 -0.0604728,0.139738 -0.117759,0.183239 -0.0575467,0.0432413 -0.130894,0.0649595 -0.220108,0.0649595 -0.112362,0 -0.201511,-0.0345931 -0.267186,-0.103714 -0.0659349,-0.0691861 -0.0987723,-0.166268 -0.0987723,-0.29118 0,-0.129464 0.0332926,-0.229732 0.0997476,-0.301064 0.0667152,-0.0713969 0.152873,-0.107225 0.259058,-0.107225 0.102739,0 0.18675,0.0351132 0.25171,0.10495 0.0651546,0.0699014 0.0977969,0.168479 0.0977969,0.295146 0,0.00793299 -0.000260098,0.0195074 -0.000780294,0.0348531l-0.572931 0c0.00468177,0.0844669 0.0286108,0.149166 0.071592,0.193838 0.0429812,0.044997 0.0963013,0.0674304 0.160546,0.0674304 0.047663,0 0.0884334,-0.0125497 0.122246,-0.0377793 0.0338128,-0.0249044 0.0605378,-0.0649595 0.0802403,-0.120035zm-0.427471 -0.210679l0.428967 0c-0.00565713,-0.0644393 -0.0222384,-0.113078 -0.0491585,-0.1452 -0.0414857,-0.0501339 -0.095326,-0.0752984 -0.161261,-0.0752984 -0.0597575,0 -0.110152,0.0199625 -0.150922,0.0600176 -0.0407054,0.0399901 -0.0632038,0.0935703 -0.0676255,0.160481z"/>
   <rect id="_132319064" class="fil2" x="34.012" y="5.7245" width="1.56133" height="1.08092"/>
   <rect id="_137138224" class="fil2" x="36.294" y="5.7245" width="1.56133" height="1.08092"/>
  </g>
  <path class="fil4" d="M12.5616 6.54804l-0.0680157 0 0 -0.433714c-0.0163862,0.0156709 -0.0377793,0.0312768 -0.0643743,0.0468827 -0.0267251,0.0156059 -0.0505891,0.0273753 -0.0717871,0.0351132l0 -0.0656748c0.0381044,-0.0179468 0.0713969,-0.039665 0.0999427,-0.0650896 0.0283507,-0.0255546 0.0486383,-0.0501989 0.0605378,-0.074193l0.0436965 0 0 0.556675z"/>
  <path class="fil4" d="M15.0391 6.54062l0 0.0654147 -0.366478 0c-0.000520196,-0.0163862 0.00208078,-0.0321221 0.00786797,-0.0472728 0.00929851,-0.0250344 0.0243192,-0.0495487 0.0448019,-0.0738028 0.0206778,-0.0241241 0.050329,-0.0521497 0.0890836,-0.0838816 0.0602777,-0.0494186 0.101048,-0.0885634 0.122246,-0.117499 0.021133,-0.0287408 0.031732,-0.0561162 0.031732,-0.0818009 0,-0.0269852 -0.00968866,-0.0496787 -0.0289359,-0.0682758 -0.0193123,-0.018467 -0.0445418,-0.0277655 -0.0754935,-0.0277655 -0.0327724,0 -0.0589772,0.0098187 -0.0786147,0.0295862 -0.0197675,0.0195724 -0.0296512,0.0468177 -0.0299113,0.0815408l-0.0699664 -0.00708767c0.00474679,-0.0522797 0.0228236,-0.0920097 0.0540354,-0.119385 0.0312768,-0.0273753 0.0733477,-0.0410305 0.126018,-0.0410305 0.0531901,0 0.0952609,0.0148256 0.126213,0.0442817 0.0311468,0.0295211 0.0466226,0.0660649 0.0466226,0.109696 0,0.0221734 -0.00455172,0.0440216 -0.0137202,0.0654147 -0.00903841,0.0214581 -0.0241241,0.0440216 -0.045127,0.0676255 -0.0210679,0.023799 -0.0560511,0.0563112 -0.10495,0.0976018 -0.0407704,0.034333 -0.0669753,0.0575467 -0.0786147,0.0698363 -0.0116394,0.0120946 -0.021198,0.0243842 -0.0288059,0.0368039l0.271998 0z"/>
  <path class="fil4" d="M16.9719 6.47189l0.0680157 -0.00903841c0.00786797,0.0386246 0.021198,0.066325 0.0399251,0.0833614 0.0187921,0.0170364 0.0416807,0.0255546 0.0686659,0.0255546 0.0319921,0 0.0591073,-0.0110542 0.0811506,-0.0332926 0.0219783,-0.0221734 0.0330325,-0.0496787 0.0330325,-0.0824511 0,-0.0312768 -0.0101438,-0.0570915 -0.0305615,-0.0773142 -0.0205478,-0.0202877 -0.0464925,-0.0304965 -0.0779644,-0.0304965 -0.0128749,0 -0.0289359,0.00260098 -0.0479881,0.00760787l0.00760787 -0.0597575c0.00448669,0.000520196 0.00812807,0.000780294 0.0109241,0.000780294 0.0289359,0 0.0550108,-0.00760787 0.0782245,-0.0226936 0.0232788,-0.0150857 0.0348531,-0.0384945 0.0348531,-0.0699664 0,-0.0249044 -0.00851821,-0.0457122 -0.0254246,-0.0619684 -0.0169064,-0.0163862 -0.0386896,-0.0246443 -0.0654147,-0.0246443 -0.026465,0 -0.0485083,0.00838816 -0.0660649,0.0249044 -0.0176867,0.0166463 -0.029066,0.0416807 -0.0340729,0.0750383l-0.0680807 -0.0121596c0.00825812,-0.0457122 0.0272453,-0.0810856 0.0567014,-0.10612 0.0295211,-0.0250344 0.066195,-0.0376492 0.110087,-0.0376492 0.0302364,0 0.0580669,0.00656748 0.0834915,0.0194423 0.0254246,0.0130699 0.044932,0.0307566 0.0585221,0.0531901 0.0133951,0.0224985 0.0202226,0.0462324 0.0202226,0.071527 0,0.023864 -0.00643743,0.0457122 -0.0193773,0.0654147 -0.0128749,0.0196374 -0.031862,0.0352433 -0.0570265,0.0468827 0.0327724,0.00747782 0.058197,0.0232138 0.0764038,0.0470778 0.0180768,0.023799 0.0271152,0.0535802 0.0271152,0.0893437 0,0.0483783 -0.0175566,0.0894738 -0.05293,0.123156 -0.0352433,0.0336827 -0.0799151,0.050459 -0.13382,0.050459 -0.0487034,0 -0.0890836,-0.0144354 -0.121206,-0.0435014 -0.0321221,-0.0289359 -0.050459,-0.0664551 -0.0550108,-0.112688z"/>
  <path class="fil4" d="M19.4974 6.61332l0 -0.132715 -0.240461 0 0 -0.0624235 0.252945 -0.359261 0.055661 0 0 0.359261 0.0748432 0 0 0.0624235 -0.0748432 0 0 0.132715 -0.0681457 0zm0 -0.195139l0 -0.249889 -0.173485 0.249889 0.173485 0z"/>
  <path class="fil4" d="M21.548 6.47189l0.071527 -0.00604728c0.00526699,0.0348531 0.0175566,0.060928 0.0368039,0.0784196 0.0193123,0.0175566 0.0425911,0.0263349 0.0698363,0.0263349 0.0327724,0 0.0605378,-0.0123547 0.0831013,-0.036999 0.0226936,-0.0247743 0.0340729,-0.0576117 0.0340729,-0.0983821 0,-0.0388196 -0.0108591,-0.0694462 -0.0326423,-0.0918797 -0.0218482,-0.0224985 -0.050329,-0.0336827 -0.0857023,-0.0336827 -0.0219783,0 -0.0416807,0.00500689 -0.0593674,0.0149556 -0.0176867,0.00994875 -0.0315369,0.0228236 -0.0416157,0.0386896l-0.0638541 -0.00825812 0.0537103 -0.284677 0.275704 0 0 0.0650245 -0.221278 0 -0.0299113 0.148971c0.0332926,-0.0232788 0.0682758,-0.0348531 0.10482,-0.0348531 0.0483783,0 0.0891486,0.0167763 0.122441,0.050329 0.0332926,0.0335527 0.0500039,0.0766639 0.0500039,0.129334 0,0.0501989 -0.0147606,0.0935703 -0.0438916,0.130114 -0.0356334,0.0448019 -0.0842068,0.0672354 -0.14559,0.0672354 -0.0505241,0 -0.0916846,-0.0140453 -0.123547,-0.042331 -0.031862,-0.0282857 -0.0500689,-0.0657398 -0.0546206,-0.112297z"/>
  <path class="fil4" d="M25.8803 6.19853l-0.0676255 0.00526699c-0.00604728,-0.0267251 -0.0145655,-0.0462324 -0.0256847,-0.058197 -0.018467,-0.0195074 -0.0411605,-0.029196 -0.0681457,-0.029196 -0.0216532,0 -0.0406403,0.00604728 -0.0570265,0.0182069 -0.0214581,0.0156059 -0.0383645,0.0384945 -0.0507191,0.0684058 -0.0122896,0.0299763 -0.0187271,0.0726974 -0.0192473,0.128163 0.0163862,-0.0249044 0.0364137,-0.0435014 0.0601477,-0.055596 0.0236039,-0.0120295 0.0485083,-0.0180768 0.0744531,-0.0180768 0.0454521,0 0.0840117,0.0166463 0.115939,0.0500689 0.031862,0.0334226 0.0478581,0.0765339 0.0478581,0.129464 0,0.0348531 -0.00760787,0.0671053 -0.0225635,0.0970816 -0.0150207,0.0297812 -0.0356334,0.0527999 -0.0618383,0.0686659 -0.0262049,0.015866 -0.0559211,0.023734 -0.0892137,0.023734 -0.0567664,0 -0.102999,-0.0208078 -0.138762,-0.0626186 -0.0358285,-0.0416807 -0.0536452,-0.110477 -0.0536452,-0.206258 0,-0.107095 0.0197024,-0.18493 0.0593674,-0.233633 0.034463,-0.042331 0.0808905,-0.063594 0.139478,-0.063594 0.0435014,0 0.0792649,0.0122246 0.10716,0.0367389 0.0278955,0.0244492 0.0445418,0.058262 0.0500689,0.101373zm-0.27785 0.2389c0,0.0234739 0.00500689,0.0459723 0.0149556,0.0673654 0.00994875,0.0214581 0.023864,0.0377142 0.0416807,0.0488984 0.0179468,0.0112492 0.0368039,0.0169064 0.0563763,0.0169064 0.0288059,0 0.0534502,-0.0115744 0.074128,-0.0348531 0.0206128,-0.0232138 0.0309517,-0.0546856 0.0309517,-0.0944806 0,-0.0382994 -0.0102089,-0.0685359 -0.0305615,-0.0905792 -0.0204177,-0.0220433 -0.0461024,-0.0330325 -0.0770541,-0.0330325 -0.0308867,0 -0.0569615,0.0109891 -0.0783546,0.0330325 -0.0214581,0.0220433 -0.0321221,0.0509792 -0.0321221,0.0867427z"/>
 </g>
</svg>
