<?xml version="1.0" encoding="UTF-8"?>
<!DOCTYPE svg PUBLIC "-//W3C//DTD SVG 1.1//EN" "http://www.w3.org/Graphics/SVG/1.1/DTD/svg11.dtd">
<!-- Creator: CorelDRAW -->
<svg xmlns="http://www.w3.org/2000/svg" xml:space="preserve" width="38.0712mm" height="28.6591mm" style="shape-rendering:geometricPrecision; text-rendering:geometricPrecision; image-rendering:optimizeQuality; fill-rule:evenodd; clip-rule:evenodd"
viewBox="0 0 8.20803 6.17881"
 xmlns:xlink="http://www.w3.org/1999/xlink">
 <defs>
  <style type="text/css">
   <![CDATA[
    .fil0 {fill:#C2C1C1;fill-rule:nonzero}
   ]]>
  </style>
 </defs>
 <g id="图层_x0020_1">
  <metadata id="CorelCorpID_0Corel-Layer"/>
  <path class="fil0" d="M1.62027 6.17368c-0.00754589,-0.000905506 -0.0181101,-0.00237156 -0.0309813,-0.00420414l0 -4.31194e-005c-0.00761057,-0.00105642 -0.0178083,-0.00265184 -0.0300758,-0.00463533 -0.436497,-0.0704786 -0.821812,-0.312508 -1.09989,-0.641918 -0.285881,-0.338703 -0.459329,-0.770586 -0.459329,-1.20411 0,-0.421147 0.120303,-0.782918 0.325702,-1.07333l0.000301835 0c0.207404,-0.293212 0.500853,-0.512711 0.844255,-0.646445 -0.0117931,-0.0589226 -0.0212363,-0.118794 -0.0281785,-0.179441 -0.00942158,-0.0823364 -0.0142725,-0.165449 -0.0142725,-0.248993 0,-0.599251 0.243021,-1.14193 0.635838,-1.53473 0.392796,-0.392817 0.935453,-0.635838 1.53473,-0.635838 0.458768,0 0.884529,0.142682 1.23535,0.386069 0.333938,0.231702 0.599769,0.554795 0.761315,0.933038 0.0788006,-0.0522607 0.164543,-0.0951429 0.255612,-0.126965 0.11916,-0.0416533 0.246858,-0.0643341 0.379278,-0.0643341 0.317531,0 0.605094,0.128798 0.813231,0.336935 0.208137,0.208137 0.336935,0.4957 0.336935,0.813231 0,0.086174 -0.00974497,0.170839 -0.0281569,0.252852 -0.0125477,0.055818 -0.0291487,0.110062 -0.0493932,0.162366 0.346464,0.128453 0.64789,0.357718 0.862624,0.652116 0.222,0.30438 0.351423,0.678332 0.342432,1.08236 -0.000409634,0.0194899 -0.00103486,0.0369748 -0.00181101,0.0523038l-2.15597e-005 0c-0.0284803,0.565726 -0.309726,0.998774 -0.738872,1.28672 -0.422764,0.283639 -0.989309,0.424812 -1.59684,0.411294 -0.0354441,-0.000776148 -0.0692712,-0.00200505 -0.101374,-0.00360047l-4.1392 -0.000409634 -0.00676974 -2.15597e-005 -0.00243624 -0.000280276zm-0.00959406 -0.154561c0.00620919,0.000883947 0.014639,0.00198349 0.0255913,0.00334175l4.13597 0.000409634 0.00355735 0c0.0343014,0.00170321 0.0667919,0.00293212 0.0972341,0.00360047 0.577066,0.0128496 1.11272,-0.11957 1.50948,-0.385767 0.390295,-0.261864 0.646014,-0.655048 0.671756,-1.16815l0 -0.000301835c0.000883947,-0.0177005 0.00150918,-0.0336115 0.00181101,-0.0475606 0.0082358,-0.369598 -0.110192,-0.71175 -0.313327,-0.990258 -0.211953,-0.290603 -0.516225,-0.512236 -0.865298,-0.624066l-0.0825736 -0.0264537 0.0371258 -0.0781323c0.0313047,-0.0659295 0.0556671,-0.135697 0.0719446,-0.208245 0.015717,-0.0699612 0.0240175,-0.143458 0.0240175,-0.219564 0,-0.275554 -0.111744,-0.525086 -0.292349,-0.705691 -0.180605,-0.180605 -0.430137,-0.292349 -0.705691,-0.292349 -0.115883,0 -0.2267,0.0195331 -0.329346,0.0554084 -0.10672,0.0372982 -0.205377,0.0924479 -0.292414,0.161827l-0.0816249 0.0650887 -0.0366299 -0.0980534c-0.145204,-0.38857 -0.40681,-0.720546 -0.742343,-0.953347 -0.325982,-0.226161 -0.722034,-0.358731 -1.1492,-0.358731 -0.557296,0 -1.06194,0.225989 -1.42719,0.591253 -0.365264,0.365243 -0.591253,0.869911 -0.591253,1.42719 0,0.0790378 0.00444129,0.156394 0.0130652,0.231745 0.00881791,0.0771621 0.0220771,0.153182 0.0394111,0.227692l0.0153936 0.0661882 -0.06414 0.0226377c-0.341699,0.120605 -0.632927,0.329669 -0.833971,0.613826l0.000194037 0.000150918c-0.187763,0.265486 -0.297761,0.597677 -0.297761,0.985967 0,0.397345 0.159736,0.794086 0.423066,1.10605 0.256021,0.30328 0.60919,0.525862 1.00779,0.590218 0.00672662,0.00107798 0.0157817,0.0024578 0.0274024,0.00407478l0.000301835 0z"/>
 </g>
</svg>
