<?xml version="1.0" encoding="UTF-8"?>
<!DOCTYPE svg PUBLIC "-//W3C//DTD SVG 1.1//EN" "http://www.w3.org/Graphics/SVG/1.1/DTD/svg11.dtd">
<!-- Creator: CorelDRAW -->
<svg xmlns="http://www.w3.org/2000/svg" xml:space="preserve" width="32.3215mm" height="18.5472mm" style="shape-rendering:geometricPrecision; text-rendering:geometricPrecision; image-rendering:optimizeQuality; fill-rule:evenodd; clip-rule:evenodd"
viewBox="0 0 10.8977 6.25349"
 xmlns:xlink="http://www.w3.org/1999/xlink">
 <defs>
  <style type="text/css">
   <![CDATA[
    .fil0 {fill:#C2C1C1;fill-rule:nonzero}
   ]]>
  </style>
 </defs>
 <g id="图层_x0020_1">
  <metadata id="CorelCorpID_0Corel-Layer"/>
  <path class="fil0" d="M0.952798 0l8.73476 0 0.118952 0 0 0.118952 0 4.98338 0.972253 0 0.118952 0 0 0.118952 0 0.724301c0,0.0847973 -0.034627,0.161806 -0.0903606,0.21754l-0.000236016 -0.000236016c-0.0559359,0.0558685 -0.132945,0.0905966 -0.217304,0.0905966l-10.2819 0c-0.0847973,0 -0.161806,-0.034627 -0.21754,-0.0903606 -0.0557336,-0.0557336 -0.0903606,-0.132742 -0.0903606,-0.21754l0 -0.724301 0 -0.118952 0.118952 0 0.714894 0 0 -4.98338 0 -0.118952 0.118952 0zm6.26168 5.34024l0 0.0541489c0,0.120503 -0.0985874,0.219091 -0.219091,0.219091l-3.1403 0c-0.120503,0 -0.219091,-0.0985874 -0.219091,-0.219091l0 -0.0541489 -3.3981 0 0 0.605348c0,0.019151 0.00792341,0.03665 0.0206346,0.0493611 0.0127112,0.0127112 0.0302101,0.0206346 0.0493611,0.0206346l10.2819 0c0.0194208,0 0.0369534,-0.00775482 0.0493611,-0.0201963l0 -0.000438316c0.0127112,-0.0127112 0.0206346,-0.0302101 0.0206346,-0.0493611l0 -0.605348 -3.44533 0zm2.35413 -5.10234l-8.49686 0 0 4.80138 8.49686 0 0 -4.80138z"/>
 </g>
</svg>
