<?xml version="1.0" encoding="UTF-8"?>
<!DOCTYPE svg PUBLIC "-//W3C//DTD SVG 1.1//EN" "http://www.w3.org/Graphics/SVG/1.1/DTD/svg11.dtd">
<!-- Creator: CorelDRAW -->
<svg xmlns="http://www.w3.org/2000/svg" xml:space="preserve" width="17.4732mm" height="17.6746mm" style="shape-rendering:geometricPrecision; text-rendering:geometricPrecision; image-rendering:optimizeQuality; fill-rule:evenodd; clip-rule:evenodd"
viewBox="0 0 1.71737 1.73716"
 xmlns:xlink="http://www.w3.org/1999/xlink">
 <defs>
  <style type="text/css">
   <![CDATA[
    .fil0 {fill:#C2C1C1}
   ]]>
  </style>
 </defs>
 <g id="图层_x0020_1">
  <metadata id="CorelCorpID_0Corel-Layer"/>
  <path class="fil0" d="M1.07466 0.57222l0 -0.258413c0,-0.0671881 -0.02752,-0.128312 -0.0718272,-0.172629 -0.044317,-0.0443072 -0.105441,-0.0718272 -0.172629,-0.0718272l-0.272153 0c-0.0671881,0 -0.128312,0.02752 -0.172629,0.0718272 -0.0443072,0.044317 -0.0718272,0.105441 -0.0718272,0.172629l0 0.258413 0.761066 0zm0.0197554 0.543491l0.0604457 0.0755523 0.189102 -0.176905 0.0471378 0.0503813 -0.216327 0.20237 -0.0272153 0.0254658 -0.0233035 -0.0291221 -0.0837395 -0.104674 0.0538999 -0.0430688zm0.36982 0.192807l0.000324343 0.000324343c0.0314514,-0.0493001 0.0497326,-0.108232 0.0497326,-0.171597 0,-0.0869927 -0.034459,-0.165651 -0.0901379,-0.22246 -0.0555609,-0.0566912 -0.132342,-0.0917792 -0.217123,-0.0917792 -0.0847813,0 -0.161562,0.035088 -0.217123,0.0917792 -0.0556789,0.0568092 -0.0901379,0.135467 -0.0901379,0.22246 0,0.0869927 0.034459,0.165651 0.0901379,0.22246 0.0555609,0.0566912 0.132342,0.0917792 0.217123,0.0917792 0.0679449,0 0.13074,-0.0225369 0.181603,-0.060662l-0.00335154 -0.00335154 0.0789529 -0.0789529zm0.0501945 0.0501945l0.186654 0.186664c0.0217113,0.0217113 0.0217113,0.0572318 0,0.0789431l0 0c-0.0217113,0.0217113 -0.0572318,0.0217113 -0.0789431,0l-0.184178 -0.184168c-0.0135339,0.0107328 -0.0278149,0.0205417 -0.0427346,0.0293383l0 0.17717c0,0.024827 -0.0101824,0.0474229 -0.0265568,0.0638169l-0.000127771 0.000127771c-0.0163941,0.0163744 -0.03899,0.0265568 -0.0638169,0.0265568l-1.21422 0c-0.024827,0 -0.0474229,-0.0101824 -0.0638169,-0.0265568l-0.000127771 -0.000127771c-0.0163744,-0.0163941 -0.0265568,-0.03899 -0.0265568,-0.0638169l0 -0.983939c0,-0.024827 0.0101824,-0.0474229 0.0265568,-0.0638169l0.000127771 -0.000127771c0.0163941,-0.0163744 0.03899,-0.0265568 0.0638169,-0.0265568l0.153739 0 0 -0.258413c0,-0.0863244 0.0353042,-0.164796 0.0921527,-0.221654 0.0568583,-0.0568485 0.13533,-0.0921527 0.221654,-0.0921527l0.272153 0c0.0863244,0 0.164796,0.0353042 0.221654,0.0921527 0.0568485,0.0568583 0.0921527,0.13533 0.0921527,0.221654l0 0.258413 0.160717 0c0.024827,0 0.0474229,0.0101824 0.0638169,0.0265568l0.000127771 0.000127771c0.0163744,0.0163941 0.0265568,0.03899 0.0265568,0.0638169l0 0.142278c0.02867,0.0169051 0.0549614,0.037555 0.0782256,0.061291 0.0680629,0.0694487 0.110188,0.165267 0.110188,0.270954 0,0.0824421 -0.0256329,0.158869 -0.0692128,0.221467zm-0.307398 -0.605057c0.0415257,0 0.0814789,0.00687017 0.118847,0.0195392l0 -0.110473c0,-0.00579886 -0.00234903,-0.0110866 -0.00610354,-0.0149198l-0.000127771 -0.000127771c-0.00383314,-0.00375452 -0.00911109,-0.00610354 -0.0149198,-0.00610354l-1.21422 0c-0.00579886,0 -0.0110866,0.00234903 -0.0149198,0.00610354l-0.000127771 0.000127771c-0.00375452,0.00383314 -0.00610354,0.00912092 -0.00610354,0.0149198l0 0.983939c0,0.00580869 0.00234903,0.0110866 0.00610354,0.0149198l0.000127771 0.000127771c0.00383314,0.00375452 0.00912092,0.00610354 0.0149198,0.00610354l1.21422 0c0.00580869,0 0.0110866,-0.00234903 0.0149198,-0.00610354l0.000127771 -0.000127771c0.00375452,-0.00383314 0.00610354,-0.00911109 0.00610354,-0.0149198l0 -0.145365c-0.0373584,0.012669 -0.0773214,0.0195392 -0.118847,0.0195392 -0.104026,0 -0.198233,-0.0430492 -0.266423,-0.112635 -0.0680629,-0.0694487 -0.110188,-0.165267 -0.110188,-0.270954 0,-0.105687 0.0421253,-0.201505 0.110188,-0.270954 0.0681906,-0.0695863 0.162398,-0.112635 0.266423,-0.112635z"/>
 </g>
</svg>
