<?xml version="1.0" encoding="UTF-8"?>
<!DOCTYPE svg PUBLIC "-//W3C//DTD SVG 1.1//EN" "http://www.w3.org/Graphics/SVG/1.1/DTD/svg11.dtd">
<!-- Creator: CorelDRAW -->
<svg xmlns="http://www.w3.org/2000/svg" xml:space="preserve" width="22.9512mm" height="22.9512mm" style="shape-rendering:geometricPrecision; text-rendering:geometricPrecision; image-rendering:optimizeQuality; fill-rule:evenodd; clip-rule:evenodd"
viewBox="0 0 4.68151 4.68151"
 xmlns:xlink="http://www.w3.org/1999/xlink">
 <defs>
  <style type="text/css">
   <![CDATA[
    .fil0 {fill:#C2C1C1;fill-rule:nonzero}
   ]]>
  </style>
 </defs>
 <g id="图层_x0020_1">
  <metadata id="CorelCorpID_0Corel-Layer"/>
  <path class="fil0" d="M2.34075 0c0.646259,0 1.23145,0.262069 1.65507,0.685688 0.423619,0.423619 0.685688,1.00881 0.685688,1.65507 0,0.646259 -0.262069,1.23145 -0.685688,1.65507 -0.423619,0.423619 -1.00881,0.685688 -1.65507,0.685688 -0.646259,0 -1.23145,-0.262069 -1.65507,-0.685688 -0.423619,-0.423619 -0.685688,-1.00881 -0.685688,-1.65507 0,-0.646259 0.262069,-1.23145 0.685688,-1.65507 0.423619,-0.423619 1.00881,-0.685688 1.65507,-0.685688zm-1.37845 2.51375l0.863759 0 0 -0.143926 -0.863922 0 0.363955 -0.236123 -0.0391635 -0.0603567 -0.0391635 -0.0603771 -0.567932 0.368443 -0.0930949 0.0603975 0.0931153 0.0603567 0.567932 0.368178 0.0782862 -0.120775 -0.363772 -0.235817zm1.41488 1.2774l0 -0.863759 -0.143926 0 0 0.863922 -0.236123 -0.363955 -0.0603567 0.0391635 -0.0603771 0.0391635 0.368443 0.567932 0.0603975 0.0930949 0.0603567 -0.0931153 0.368178 -0.567932 -0.120775 -0.0782862 -0.235817 0.363772zm1.2774 -1.41488l-0.863759 0 0 0.143926 0.863922 0 -0.363955 0.236123 0.0391635 0.0603567 0.0391635 0.0603771 0.567932 -0.368443 0.0930949 -0.0603975 -0.0931153 -0.0603567 -0.567932 -0.368178 -0.0782862 0.120775 0.363772 0.235817zm-1.41488 -1.2774l0 0.863759 0.143926 0 0 -0.863922 0.236123 0.363955 0.0603567 -0.0391635 0.0603771 -0.0391635 -0.368443 -0.567932 -0.0603975 -0.0930949 -0.0603567 0.0931153 -0.368178 0.567932 0.120775 0.0782862 0.235817 -0.363772zm1.65437 -0.311431c-0.39755,-0.39755 -0.946778,-0.643505 -1.55332,-0.643505 -0.606545,0 -1.15577,0.245955 -1.55332,0.643505 -0.39755,0.39755 -0.643505,0.946778 -0.643505,1.55332 0,0.606545 0.245955,1.15577 0.643505,1.55332 0.39755,0.39755 0.946778,0.643505 1.55332,0.643505 0.606545,0 1.15577,-0.245955 1.55332,-0.643505 0.39755,-0.39755 0.643505,-0.946778 0.643505,-1.55332 0,-0.606545 -0.245955,-1.15577 -0.643505,-1.55332z"/>
 </g>
</svg>
