<?xml version="1.0" encoding="UTF-8"?>
<!DOCTYPE svg PUBLIC "-//W3C//DTD SVG 1.1//EN" "http://www.w3.org/Graphics/SVG/1.1/DTD/svg11.dtd">
<!-- Creator: CorelDRAW -->
<svg xmlns="http://www.w3.org/2000/svg" xml:space="preserve" width="50.7465mm" height="13.2311mm" style="shape-rendering:geometricPrecision; text-rendering:geometricPrecision; image-rendering:optimizeQuality; fill-rule:evenodd; clip-rule:evenodd"
viewBox="0 0 22.9965 5.99587"
 xmlns:xlink="http://www.w3.org/1999/xlink">
 <defs>
  <style type="text/css">
   <![CDATA[
    .fil0 {fill:#C2C1C1;fill-rule:nonzero}
   ]]>
  </style>
 </defs>
 <g id="图层_x0020_1">
  <metadata id="CorelCorpID_0Corel-Layer"/>
  <path class="fil0" d="M0.578374 0.886028l0.999863 0 0 -0.308379c0,-0.15897 0.0649839,-0.303485 0.169574,-0.408075 0.10459,-0.10459 0.249059,-0.169574 0.408075,-0.169574l18.7401 0c0.15897,0 0.303485,0.0649839 0.408075,0.169574 0.10459,0.10459 0.169574,0.249105 0.169574,0.408075l0 0.308379 0.944486 0c0.159197,0 0.303892,0.0650745 0.408574,0.169756 0.104726,0.104726 0.169801,0.249422 0.169801,0.408619l0 3.01169c0,0.158562 -0.0650745,0.303077 -0.169801,0.407984l-0.000317215 0.000271899 -0.000271899 0.000317215c-0.104908,0.104726 -0.249422,0.169801 -0.407984,0.169801l-0.944486 0 0 0.363756c0,0.159016 -0.0649839,0.303485 -0.169574,0.408075 -0.10459,0.10459 -0.249105,0.169574 -0.408075,0.169574l-18.7401 0c-0.159016,0 -0.303485,-0.0649839 -0.408075,-0.169574 -0.10459,-0.10459 -0.169574,-0.249059 -0.169574,-0.408075l0 -0.363756 -0.999863 0c-0.159197,0 -0.303892,-0.0650745 -0.408619,-0.169801 -0.104681,-0.104681 -0.169756,-0.249377 -0.169756,-0.408574l0 -3.01169c0,-0.158789 0.0650745,-0.303258 0.169756,-0.40803l0.000589114 -0.000589114c0.104772,-0.104681 0.249241,-0.169756 0.40803,-0.169756zm3.12561 1.73811l0.581456 0 0 0.581456 -0.581456 0 0 -0.581456zm2.87959 -0.0276884l3.98713 0 0 0.636833 -3.98713 0 0 -0.636833zm6.39602 -0.913717l0.581456 0 0 0.581456 -0.581456 0 0 -0.581456zm1.4398 0l0.581456 0 0 0.581456 -0.581456 0 0 -0.581456zm1.4398 0l0.581456 0 0 0.581456 -0.581456 0 0 -0.581456zm1.4398 0l0.581456 0 0 0.581456 -0.581456 0 0 -0.581456zm1.4398 0l0.581456 0 0 0.581456 -0.581456 0 0 -0.581456zm-6.4237 0.969093l0.581456 0 0 0.581456 -0.581456 0 0 -0.581456zm1.4398 0l0.581456 0 0 0.581456 -0.581456 0 0 -0.581456zm1.4398 0l0.581456 0 0 0.581456 -0.581456 0 0 -0.581456zm1.4398 0l0.581456 0 0 0.581456 -0.581456 0 0 -0.581456zm1.4398 0l0.581456 0 0 0.581456 -0.581456 0 0 -0.581456zm-5.09466 0.802963l0.581456 0 0 0.581456 -0.581456 0 0 -0.581456zm1.4398 0l0.581456 0 0 0.581456 -0.581456 0 0 -0.581456zm1.4398 0l0.581456 0 0 0.581456 -0.581456 0 0 -0.581456zm1.4398 0l0.581456 0 0 0.581456 -0.581456 0 0 -0.581456zm1.4398 0l0.581456 0 0 0.581456 -0.581456 0 0 -0.581456zm-17.1605 -2.24901l-0.999863 0c-0.0712375,0 -0.135995,0.0290479 -0.182852,0.0757692 -0.0467213,0.0468573 -0.0757692,0.111615 -0.0757692,0.182852l0 3.01169c0,0.0709656 0.0291838,0.135678 0.0760411,0.182535 0.0469026,0.0469026 0.111615,0.0760864 0.18258,0.0760864l0.999863 0 0 -3.52893zm19.8954 0l0 3.52893 0.944486 0c0.0713282,0 0.135995,-0.0289572 0.182535,-0.0754973l0.000589114 -0.000589114c0.04654,-0.04654 0.0754973,-0.111207 0.0754973,-0.182535l0 -3.01169c0,-0.0709656 -0.0291838,-0.135678 -0.0760864,-0.18258 -0.0468573,-0.0468573 -0.111569,-0.0760411 -0.182535,-0.0760411l-0.944486 0zm-0.577649 -0.886028l-18.7401 0c-0.0707391,0 -0.13527,0.0290932 -0.182036,0.0758598 -0.0467666,0.0467666 -0.0758598,0.111343 -0.0758598,0.182036l0 4.84057c0,0.0707391 0.0290932,0.13527 0.0758598,0.182036 0.0467666,0.0467666 0.111297,0.0758598 0.182036,0.0758598l18.7401 0c0.0706937,0 0.13527,-0.0290932 0.182036,-0.0758598 0.0467666,-0.0467666 0.0758598,-0.111297 0.0758598,-0.182036l0 -4.84057c0,-0.0706937 -0.0290932,-0.13527 -0.0758598,-0.182036 -0.0467666,-0.0467666 -0.111343,-0.0758598 -0.182036,-0.0758598z"/>
 </g>
</svg>
