<?xml version="1.0" encoding="UTF-8"?>
<!DOCTYPE svg PUBLIC "-//W3C//DTD SVG 1.1//EN" "http://www.w3.org/Graphics/SVG/1.1/DTD/svg11.dtd">
<!-- Creator: CorelDRAW -->
<svg xmlns="http://www.w3.org/2000/svg" xml:space="preserve" width="17.607mm" height="17.6746mm" style="shape-rendering:geometricPrecision; text-rendering:geometricPrecision; image-rendering:optimizeQuality; fill-rule:evenodd; clip-rule:evenodd"
viewBox="0 0 3.99718 4.01253"
 xmlns:xlink="http://www.w3.org/1999/xlink">
 <defs>
  <style type="text/css">
   <![CDATA[
    .fil0 {fill:#C2C1C1;fill-rule:nonzero}
   ]]>
  </style>
 </defs>
 <g id="图层_x0020_1">
  <metadata id="CorelCorpID_0Corel-Layer"/>
  <path class="fil0" d="M0.209042 1.32172l0.355109 0 0 -0.596887c0,-0.199394 0.0815465,-0.380649 0.212856,-0.511981 0.131332,-0.13131 0.312587,-0.212856 0.511981,-0.212856l0.628625 0c0.121866,0 0.237375,0.0308297 0.339058,0.0850426 0.104952,0.055961 0.194785,0.137144 0.261212,0.235218l-0.132036 0.0894923c-0.05192,-0.0766655 -0.122161,-0.140141 -0.204275,-0.183911 -0.0785044,-0.0418629 -0.168383,-0.0656549 -0.263959,-0.0656549l-0.628625 0c-0.155193,0 -0.296378,0.0635663 -0.398742,0.165908 -0.102342,0.102364 -0.165908,0.24355 -0.165908,0.398742l0 0.596887 2.28934 0c0.0573459,0 0.109538,0.0235195 0.147406,0.0613415l0.000295129 0.000295129c0.0378219,0.0378673 0.0613415,0.0900598 0.0613415,0.147406l0 0.328638c0.0662225,0.0390479 0.126951,0.0867453 0.180687,0.141571 0.157213,0.160414 0.254515,0.381738 0.254515,0.625856 0,0.182549 -0.0543946,0.352339 -0.147587,0.493456l0.449232 0.449255c0.0501493,0.0501493 0.0501493,0.132195 0,0.182344l0 0c-0.0501493,0.0501493 -0.132195,0.0501493 -0.182344,0l-0.439039 -0.439039c-0.0361874,0.0301486 -0.0747812,0.0574367 -0.115464,0.0814103l0 0.409231c0,0.0573459 -0.0235195,0.109538 -0.0613415,0.147406l-0.000295129 0.000295129c-0.0378673,0.0378219 -0.0900598,0.0613415 -0.147406,0.0613415l-2.80464 0c-0.0573459,0 -0.109538,-0.0235195 -0.147406,-0.0613415l-0.000295129 -0.000295129c-0.0378219,-0.0378673 -0.0613415,-0.0900598 -0.0613415,-0.147406l0 -2.27272c0,-0.0573459 0.0235195,-0.109538 0.0613415,-0.147406l0.000295129 -0.000295129c0.0378673,-0.0378219 0.0900598,-0.0613415 0.147406,-0.0613415zm2.85349 0.464216l0 -0.255173c0,-0.0133943 -0.00542584,-0.0256081 -0.0140981,-0.034462l-0.000295129 -0.000295129c-0.00885388,-0.00867226 -0.021045,-0.0140981 -0.034462,-0.0140981l-2.80464 0c-0.0133943,0 -0.0256081,0.00542584 -0.034462,0.0140981l-0.000295129 0.000295129c-0.00867226,0.00885388 -0.0140981,0.0210677 -0.0140981,0.034462l0 2.27272c0,0.013417 0.00542584,0.0256081 0.0140981,0.034462l0.000295129 0.000295129c0.00885388,0.00867226 0.0210677,0.0140981 0.034462,0.0140981l2.80464 0c0.013417,0 0.0256081,-0.00542584 0.034462,-0.0140981l0.000295129 -0.000295129c0.00867226,-0.00885388 0.0140981,-0.021045 0.0140981,-0.034462l0 -0.335766c-0.0862912,0.0292632 -0.178599,0.0451321 -0.274516,0.0451321 -0.240281,0 -0.457882,-0.0994358 -0.61539,-0.260168 -0.157213,-0.160414 -0.254515,-0.381738 -0.254515,-0.625856 0,-0.244117 0.0973018,-0.465441 0.254515,-0.625856 0.157508,-0.160732 0.375109,-0.260168 0.61539,-0.260168 0.095917,0 0.188202,0.0158689 0.274516,0.0451321zm0.227 0.327049c-0.128336,-0.130947 -0.305686,-0.211994 -0.501515,-0.211994 -0.19583,0 -0.37318,0.081047 -0.501515,0.211994 -0.128608,0.131219 -0.208202,0.312905 -0.208202,0.513843 0,0.200938 0.0795941,0.382624 0.208202,0.513843 0.128336,0.130947 0.305686,0.211994 0.501515,0.211994 0.19583,0 0.37318,-0.081047 0.501515,-0.211994 0.128608,-0.131219 0.208202,-0.312905 0.208202,-0.513843 0,-0.200938 -0.0795941,-0.382624 -0.208202,-0.513843zm-0.761638 0.464102l0.139619 0.174512 0.436791 -0.408618 0.10888 0.116372 -0.499676 0.467439 -0.0628625 0.0588215 -0.053827 -0.0672668 -0.193423 -0.241779 0.124499 -0.0994812z"/>
 </g>
</svg>
